<svg xmlns="http://www.w3.org/2000/svg" width="400" height="227" viewBox="0 0 400 227">
  <g id="Grupo_1" data-name="Grupo 1" transform="translate(-2272 -481)">
    <rect id="Retângulo_2" data-name="Retângulo 2" width="400" height="227" transform="translate(2272 481)" fill="none"/>
    <path id="alura" d="M52.909,91.87a4.221,4.221,0,0,1-2.093,3.023,14.171,14.171,0,0,1-3.082,1.442c-2.1.727-4.32,1.454-6.663,2.3-2.471.843-4.686,1.686-6.663,2.3-2.465.843-4.808,1.57-7.035,2.413a20.756,20.756,0,0,0-4.68,2.779,19.9,19.9,0,0,0-3.454,4.1,12.6,12.6,0,0,0-1.611,6.4c0,5.076,1.233,8.936,3.7,11.349,2.465,2.541,7.035,3.744,13.809,3.744q10.361,0,14.07-3.983Q52.9,123.746,52.9,116.51V91.87ZM35.147,38.379c12.094,0,20.972,2.3,26.641,7.006a21.659,21.659,0,0,1,8.512,17.5V122.54a28.385,28.385,0,0,1-1.349,7.965,17.168,17.168,0,0,1-5.308,7.965,29.608,29.608,0,0,1-10.727,6.047c-4.564,1.57-10.483,2.413-17.762,2.413s-13.2-.843-17.757-2.413A29.658,29.658,0,0,1,6.669,138.47a19.338,19.338,0,0,1-5.3-7.965A27.968,27.968,0,0,1,0,122.545V113.01a24.829,24.829,0,0,1,4.07-13.9,22.194,22.194,0,0,1,11.471-8.931c2.465-.843,5.3-1.686,8.506-2.773s6.163-2.18,9.128-3.14,5.553-1.942,7.768-2.791q2.005-.8,4.07-1.442l2.221-1.087a10.245,10.245,0,0,0,2.593-2.175,15.389,15.389,0,0,0,2.221-3.256,9.3,9.3,0,0,0,.988-4.221V65.432a9.826,9.826,0,0,0-.872-4.111,9.495,9.495,0,0,0-2.832-3.983,15.365,15.365,0,0,0-5.425-2.907A28.8,28.8,0,0,0,35.4,53.351c-6.907,0-11.471,1.337-13.937,4.1a14.922,14.922,0,0,0-3.57,8.814,1.258,1.258,0,0,1-1.361,1.209l-15.041.244A1.355,1.355,0,0,1,.128,66.386V62.9A22.861,22.861,0,0,1,2.1,53.351,20.1,20.1,0,0,1,8.4,45.618a31.853,31.853,0,0,1,10.977-5.186c4.32-1.454,9.623-2.052,15.786-2.052ZM307.833,91.87a4.221,4.221,0,0,1-2.093,3.023,13.923,13.923,0,0,1-3.081,1.442c-2.093.727-4.32,1.454-6.663,2.3-2.471.843-4.692,1.686-6.663,2.3-2.471.843-4.814,1.57-7.035,2.413a20.757,20.757,0,0,0-4.686,2.779,19.9,19.9,0,0,0-3.448,4.1,12.6,12.6,0,0,0-1.6,6.4c0,5.076,1.221,8.936,3.692,11.349,2.465,2.541,7.035,3.744,13.815,3.744q10.378,0,14.07-3.983t3.692-11.221V91.87ZM290.077,38.379c12.094,0,20.972,2.3,26.647,7.006a21.67,21.67,0,0,1,8.506,17.5V122.54a28.2,28.2,0,0,1-1.355,7.965,17.066,17.066,0,0,1-5.3,7.965,29.609,29.609,0,0,1-10.727,6.047c-4.558,1.57-10.483,2.413-17.757,2.413s-13.2-.843-17.757-2.413A29.658,29.658,0,0,1,261.6,138.47a19.332,19.332,0,0,1-5.291-7.965,28.039,28.039,0,0,1-1.366-7.965V113a24.875,24.875,0,0,1,4.07-13.9,22.216,22.216,0,0,1,11.471-8.931c2.465-.843,5.3-1.686,8.512-2.773s6.163-2.18,9.128-3.14,5.547-1.942,7.768-2.791q2.005-.8,4.07-1.442l2.221-1.087a10.328,10.328,0,0,0,2.587-2.175A14.768,14.768,0,0,0,307,73.514a9.3,9.3,0,0,0,.988-4.221V65.427a9.826,9.826,0,0,0-.872-4.111,9.443,9.443,0,0,0-2.832-3.983,15.263,15.263,0,0,0-5.425-2.907,28.8,28.8,0,0,0-8.512-1.081c-6.907,0-11.466,1.337-13.937,4.1a14.965,14.965,0,0,0-3.576,8.814,1.251,1.251,0,0,1-1.349,1.209h-14.96a1.355,1.355,0,0,1-1.349-1.326V62.642a22.792,22.792,0,0,1,1.977-9.535,19.986,19.986,0,0,1,6.279-7.721,31.71,31.71,0,0,1,10.989-5.192,57.288,57.288,0,0,1,15.658-1.82Zm-52.909.483h9.873a1.309,1.309,0,0,1,1.233,1.686l-3.332,12.559a1.283,1.283,0,0,1-1.233.971H236.8a23.59,23.59,0,0,0-9,1.454,15.778,15.778,0,0,0-5.308,3.372,9.678,9.678,0,0,0-2.343,3.989,15.931,15.931,0,0,0-.494,3.983v77.643a1.355,1.355,0,0,1-1.366,1.326H203.5a1.355,1.355,0,0,1-1.355-1.326V63.368a31.324,31.324,0,0,1,.86-6.4,17.785,17.785,0,0,1,4.32-8.21,27.923,27.923,0,0,1,10.483-7c4.692-1.942,11.105-2.907,19.361-2.907ZM187.34,119.882V123.5a30.807,30.807,0,0,1-.855,6.524,17.388,17.388,0,0,1-4.32,8.082,27.861,27.861,0,0,1-10.483,7.006c-4.686,1.936-11.105,2.907-19.361,2.907s-14.675-.971-19.361-2.907-8.14-4.221-10.483-7a17.193,17.193,0,0,1-4.32-8.2,42.285,42.285,0,0,1-.855-6.407V42.245a1.36,1.36,0,0,1,1.355-1.337h14.675a1.361,1.361,0,0,1,1.361,1.337v76.067a22.176,22.176,0,0,0,.738,5.8,9.7,9.7,0,0,0,2.227,4.1,11.8,11.8,0,0,0,5.175,3.256,26.308,26.308,0,0,0,9.128,1.337,28.654,28.654,0,0,0,9.5-1.337,14.411,14.411,0,0,0,5.3-3.14,8.656,8.656,0,0,0,2.459-3.983,18.675,18.675,0,0,0,.872-6.163V42.129a1.349,1.349,0,0,1,1.349-1.326h14.675a1.355,1.355,0,0,1,1.349,1.337v77.753h-.116ZM86.341.11h14.681a1.349,1.349,0,0,1,1.355,1.32V145.238a1.355,1.355,0,0,1-1.355,1.337H86.341a1.355,1.355,0,0,1-1.355-1.337V1.43A1.438,1.438,0,0,1,86.341.1Z" transform="translate(2309 520.896)" fill="#9baeb5" fill-rule="evenodd"/>
  </g>
</svg>
